<svg xmlns="http://www.w3.org/2000/svg" width="40" height="40" viewBox="0 0 40 40" fill="none">
  <circle cx="20" cy="20" r="20" fill="#E6F7F9"/>
  <path fill-rule="evenodd" clip-rule="evenodd" d="M20 10C16.6863 10 14 12.6863 14 16C14 19.3137 16.6863 22 20 22C23.3137 22 26 19.3137 26 16C26 12.6863 23.3137 10 20 10ZM12 16C12 11.5817 15.5817 8 20 8C24.4183 8 28 11.5817 28 16C28 20.4183 24.4183 24 20 24C15.5817 24 12 20.4183 12 16Z" fill="#0891B2"/>
  <path fill-rule="evenodd" clip-rule="evenodd" d="M12.25 30C12.25 26.2721 15.2721 23.25 19 23.25H21C24.7279 23.25 27.75 26.2721 27.75 30V31C27.75 31.4142 27.4142 31.75 27 31.75C26.5858 31.75 26.25 31.4142 26.25 31V30C26.25 27.1005 23.8995 24.75 21 24.75H19C16.1005 24.75 13.75 27.1005 13.75 30V31C13.75 31.4142 13.4142 31.75 13 31.75C12.5858 31.75 12.25 31.4142 12.25 31V30Z" fill="#0891B2"/>
  <path d="M20 14V18M18 16H22" stroke="#0891B2" stroke-width="2" stroke-linecap="round"/>
</svg>